<?xml version="1.0" standalone="yes"?>
<svg xmlns="http://www.w3.org/2000/svg" width="512" height="512">
<path style="fill:#ffffff; stroke:none;" d="M0 0L0 104L1 104C1.70598 95.9138 5.24372 87.7007 9.74923 81C36.9671 40.5207 90.925 51 133 51C146.591 51 181.169 44.6459 188.543 59.0146C198.746 78.8957 166.263 78 156 78L76 78C57.643 78 39.6842 79.3523 30.277 98C24.9597 108.54 26 120.573 26 132L26 190L26 378L26 430C26 441.127 25.0386 452.496 29.4645 463C43.0972 495.354 93.0738 485 121 485L357 485L408 485C422.281 485 435.471 485.641 446.829 475.381C459.666 463.787 459 448.823 459 433L459 361C459 349.278 454.451 324.284 471 321.438C477.294 320.355 483.586 326.385 485.347 332C489.118 344.023 486 361.416 486 374C486 418.191 498.135 482.261 449 505.36C442.304 508.507 435.441 510.846 428 511L428 512L512 512L512 85L511 85C507.026 114.486 471.746 138.254 452 158L324 286L284 326C277.85 332.151 271.595 340.556 264 344.911C254.891 350.134 242.067 351.552 232 354.421C209.378 360.87 186.628 366.86 164 373.29C153.866 376.17 138.387 378.195 137.907 363C137.451 348.614 146.094 330.865 149.849 317C155.556 295.928 158.695 267.966 169.532 249C178.324 233.615 196.51 220.49 209 208L293 124C329.296 87.7039 364.085 46.5331 404 14.2616C432.902 -9.10638 465.574 3.57294 489 27C499.176 37.1764 508.821 48.2449 511 63L512 63L512 0L0 0z"/>
<path style="fill:#093963; stroke:none;" d="M439 1.70987C404.569 2.16818 382.331 33.6691 360 56L230 186L190 226C183.195 232.805 174.348 239.572 169.532 248C164.05 257.595 162.516 270.423 159.576 281C153.461 302.992 147.529 325.045 141.29 347C138.483 356.879 133.119 374.385 149 375.894C165.891 377.5 187.792 366.93 204 362.424C222.809 357.196 248.064 354.622 265 344.911C282.791 334.711 298.5 312.5 313 298L416 195L473 138C483.119 127.881 495.488 118.062 503.301 106C531.465 62.5162 487.299 1.06699 439 1.70987z"/>
<path style="fill:#596e58; stroke:none;" d="M439 27L440 28L439 27M432 28L433 29L432 28z"/>
<path style="fill:#01e5d4; stroke:none;" d="M404 50L404 51L463 110C472.996 102.959 484.269 91.7486 485.816 79C488.796 54.4359 460.338 26.1293 436 28.0934C422.175 29.209 413.096 40.904 404 50z"/>
<path style="fill:#596e58; stroke:none;" d="M446 28L447 29L446 28M429 29L430 30L429 29M450 29L451 30L450 29M426 30L427 31L426 30M452 30L453 31L452 30M424 31L425 32L424 31M454 31L455 32L454 31M422 32L423 33L422 32M456 32L457 33L456 32M421 33L422 34L421 33M460 35L461 36L460 35M417 36L418 37L417 36M461 36L462 37L461 36M416 37L417 38L416 37M415 38L416 39L415 38M414 39L415 40L414 39M413 40L414 41L413 40M412 41L413 42L412 41M411 42L412 43L411 42M410 43L411 44L410 43M409 44L410 45L409 44M408 45L409 46L408 45M407 46L408 47L407 46M406 47L407 48L406 47M405 48L406 49L405 48M404 49L405 50L404 49z"/>
<path style="fill:#093963; stroke:none;" d="M56 51.4283C28.3205 55.3935 4.00688 76.4635 0.289352 105C-3.32241 132.725 0 163.026 0 191L0 364L0 431C0 446.006 -1.20787 461.003 5.3233 475C24.3024 515.673 66.3477 512 104 512L342 512L402 512C419.072 512 435.251 512.575 451 504.89C499.251 481.348 486 413.787 486 370C486 358.283 488.865 342.2 485.347 331C483.132 323.945 475.123 319.123 468.001 322.009C454.23 327.59 459 351.221 459 363L459 431C459 446.865 459.865 461.556 447.711 473.711C435.806 485.615 421.57 485 406 485L356 485L129 485L76 485C63.8571 485 52.1548 485.572 42 477.61C17.7379 458.587 26 418.235 26 391L26 174C26 149.185 18.2853 109.799 36.591 90.1705C48.7062 77.1798 63.6907 78 80 78L151 78C160.751 78 175.2 80.6357 183.907 75.4421C195.538 68.5043 189.21 52.1399 177 51.0941C154.678 49.1823 131.411 51 109 51C91.7513 51 73.0758 48.982 56 51.4283z"/>
<path style="fill:#596e58; stroke:none;" d="M477 52L478 53L477 52M478 53L479 54L478 53M481 57L482 58L481 57M482 59L483 60L482 59M483 61L484 62L483 61M484 63L485 64L484 63M485 67L486 68L485 67M385 68L386 69L385 68z"/>
<path style="fill:#01e5d4; stroke:none;" d="M384 70.1759C379.093 71.8661 374.579 78.4209 371 82L343 110L244 209L214 239C210.167 242.833 202.983 247.755 201.176 253C199.359 258.275 208.81 264.81 212 268L247 303C249.824 305.824 255.358 313.812 260 312.654C264.48 311.537 268.86 305.14 272 302L300 274L402 172L432 142C435.373 138.627 442.458 133.798 443.654 129C444.812 124.358 436.824 118.824 434 116L399 81C395.81 77.8104 389.275 68.359 384 70.1759z"/>
<path style="fill:#596e58; stroke:none;" d="M485 81L486 82L485 81M484 84L485 85L484 84M483 87L484 88L483 87M480 92L481 93L480 92M445 128L446 129L445 128M444 129L445 130L444 129M443 130L444 131L443 130M442 131L443 132L442 131M441 132L442 133L441 132M440 133L441 134L440 133M439 134L440 135L439 134M438 135L439 136L438 135M437 136L438 137L437 136M436 137L437 138L436 137M435 138L436 139L435 138M434 139L435 140L434 139M433 140L434 141L433 140M432 141L433 142L432 141M431 142L432 143L431 142M430 143L431 144L430 143M429 144L430 145L429 144M428 145L429 146L428 145M427 146L428 147L427 146M426 147L427 148L426 147M425 148L426 149L425 148M424 149L425 150L424 149M423 150L424 151L423 150M422 151L423 152L422 151M421 152L422 153L421 152M420 153L421 154L420 153M419 154L420 155L419 154M418 155L419 156L418 155M417 156L418 157L417 156M416 157L417 158L416 157M415 158L416 159L415 158M414 159L415 160L414 159M413 160L414 161L413 160M412 161L413 162L412 161M411 162L412 163L411 162M410 163L411 164L410 163M409 164L410 165L409 164M408 165L409 166L408 165M407 166L408 167L407 166M406 167L407 168L406 167M405 168L406 169L405 168M404 169L405 170L404 169M403 170L404 171L403 170M402 171L403 172L402 171M401 172L402 173L401 172M400 173L401 174L400 173M399 174L400 175L399 174M398 175L399 176L398 175M397 176L398 177L397 176M396 177L397 178L396 177M395 178L396 179L395 178M394 179L395 180L394 179M393 180L394 181L393 180M392 181L393 182L392 181M391 182L392 183L391 182M390 183L391 184L390 183M389 184L390 185L389 184M388 185L389 186L388 185M387 186L388 187L387 186M386 187L387 188L386 187M385 188L386 189L385 188M384 189L385 190L384 189M383 190L384 191L383 190M382 191L383 192L382 191M381 192L382 193L381 192M380 193L381 194L380 193M379 194L380 195L379 194M378 195L379 196L378 195M377 196L378 197L377 196M376 197L377 198L376 197M375 198L376 199L375 198M374 199L375 200L374 199M373 200L374 201L373 200M372 201L373 202L372 201M371 202L372 203L371 202M370 203L371 204L370 203M369 204L370 205L369 204M368 205L369 206L368 205M367 206L368 207L367 206M366 207L367 208L366 207M365 208L366 209L365 208M364 209L365 210L364 209M363 210L364 211L363 210M362 211L363 212L362 211M361 212L362 213L361 212M360 213L361 214L360 213M359 214L360 215L359 214M358 215L359 216L358 215M357 216L358 217L357 216M356 217L357 218L356 217M355 218L356 219L355 218M354 219L355 220L354 219M353 220L354 221L353 220M352 221L353 222L352 221M351 222L352 223L351 222M350 223L351 224L350 223M349 224L350 225L349 224M348 225L349 226L348 225M347 226L348 227L347 226M346 227L347 228L346 227M345 228L346 229L345 228M344 229L345 230L344 229M343 230L344 231L343 230M342 231L343 232L342 231M341 232L342 233L341 232M340 233L341 234L340 233M339 234L340 235L339 234M338 235L339 236L338 235M337 236L338 237L337 236M336 237L337 238L336 237M335 238L336 239L335 238M334 239L335 240L334 239M333 240L334 241L333 240M332 241L333 242L332 241M331 242L332 243L331 242M330 243L331 244L330 243M329 244L330 245L329 244M328 245L329 246L328 245M327 246L328 247L327 246M326 247L327 248L326 247M325 248L326 249L325 248M324 249L325 250L324 249M323 250L324 251L323 250M322 251L323 252L322 251M321 252L322 253L321 252M320 253L321 254L320 253M199 254L200 255L199 254M319 254L320 255L319 254M318 255L319 256L318 255M317 256L318 257L317 256M316 257L317 258L316 257M315 258L316 259L315 258M314 259L315 260L314 259M313 260L314 261L313 260M312 261L313 262L312 261M311 262L312 263L311 262M310 263L311 264L310 263M309 264L310 265L309 264M308 265L309 266L308 265M307 266L308 267L307 266M306 267L307 268L306 267M305 268L306 269L305 268M304 269L305 270L304 269M303 270L304 271L303 270M302 271L303 272L302 271M301 272L302 273L301 272M300 273L301 274L300 273M299 274L300 275L299 274M298 275L299 276L298 275M297 276L298 277L297 276M296 277L297 278L296 277M295 278L296 279L295 278z"/>
<path style="fill:#fdd941; stroke:none;" d="M187 279L169 345L235 327C223.435 310.582 203.418 290.565 187 279z"/>
<path style="fill:#596e58; stroke:none;" d="M188 279L189 280L188 279M294 279L295 280L294 279M189 280L190 281L189 280M293 280L294 281L293 280M186 281L187 282L186 281M190 281L191 282L190 281M292 281L293 282L292 281M191 282L192 283L191 282M291 282L292 283L291 282M192 283L193 284L192 283M290 283L291 284L290 283M185.333 284.667L185.667 285.333L185.333 284.667M193 284L194 285L193 284M289 284L290 285L289 284M194 285L195 286L194 285M288 285L289 286L288 285M195 286L196 287L195 286M287 286L288 287L287 286M196 287L197 288L196 287M286 287L287 288L286 287M184.333 288.667L184.667 289.333L184.333 288.667M197 288L198 289L197 288M285 288L286 289L285 288M198 289L199 290L198 289M284 289L285 290L284 289M199 290L200 291L199 290M283 290L284 291L283 290M183.333 291.667L183.667 292.333L183.333 291.667M200 291L201 292L200 291M282 291L283 292L282 291M201 292L202 293L201 292M281 292L282 293L281 292M202 293L203 294L202 293M280 293L281 294L280 293M203 294L204 295L203 294M279 294L280 295L279 294M182.333 295.667L182.667 296.333L182.333 295.667M204 295L205 296L204 295M278 295L279 296L278 295M205 296L206 297L205 296M277 296L278 297L277 296M206 297L207 298L206 297M276 297L277 298L276 297M207 298L208 299L207 298M275 298L276 299L275 298M181 299L182 300L181 299M208 299L209 300L208 299M274 299L275 300L274 299M209 300L210 301L209 300M273 300L274 301L273 300M210 301L211 302L210 301M272 301L273 302L272 301M180.333 302.667L180.667 303.333L180.333 302.667M211 302L212 303L211 302M271 302L272 303L271 302M212 303L213 304L212 303M270 303L271 304L270 303M213 304L214 305L213 304M269 304L270 305L269 304M214 305L215 306L214 305M268 305L269 306L268 305M179.333 306.667L179.667 307.333L179.333 306.667M215 306L216 307L215 306M267 306L268 307L267 306M216 307L217 308L216 307M266 307L267 308L266 307M217 308L218 309L217 308M265 308L266 309L265 308M178.333 309.667L178.667 310.333L178.333 309.667M218 309L219 310L218 309M264 309L265 310L264 309M219 310L220 311L219 310M263 310L264 311L263 310M220 311L221 312L220 311M262 311L263 312L262 311M221 312L222 313L221 312M261 312L262 313L261 312M177.333 313.667L177.667 314.333L177.333 313.667M222 313L223 314L222 313M260 313L261 314L260 313M223 314L224 315L223 314M259 314L260 315L259 314M224 315L225 316L224 315M225 316L226 317L225 316M176 317L177 318L176 317M226 317L227 318L226 317M227 318L228 319L227 318M228 319L229 320L228 319M175.333 320.667L175.667 321.333L175.333 320.667M229 320L230 321L229 320M230 321L231 322L230 321M231 322L232 323L231 322M232 323L233 324L232 323M174.333 324.667L174.667 325.333L174.333 324.667M233 324L234 325L233 324M234 325L235 326L234 325M231.667 327.333L232.333 327.667L231.667 327.333M173 328L174 329L173 328M228.667 328.333L229.333 328.667L228.667 328.333M224.667 329.333L225.333 329.667L224.667 329.333M221 330L222 331L221 330M172.333 331.667L172.667 332.333L172.333 331.667M217.667 331.333L218.333 331.667L217.667 331.333M213.667 332.333L214.333 332.667L213.667 332.333M210 333L211 334L210 333M206.667 334.333L207.333 334.667L206.667 334.333M171 335L172 336L171 335M202.667 335.333L203.333 335.667L202.667 335.333M199.667 336.333L200.333 336.667L199.667 336.333M195.667 337.333L196.333 337.667L195.667 337.333M170.333 338.667L170.667 339.333L170.333 338.667M192 338L193 339L192 338M188.667 339.333L189.333 339.667L188.667 339.333M184.667 340.333L185.333 340.667L184.667 340.333M181.667 341.333L182.333 341.667L181.667 341.333M169.333 342.667L169.667 343.333L169.333 342.667M177.667 342.333L178.333 342.667L177.667 342.333M174 343L175 344L174 343M170.667 344.333L171.333 344.667L170.667 344.333z"/>
<path style="fill:#ffffff; stroke:none;" d="M0 459L0 512L57 512L57 511C35.9337 510.551 16.6411 494.759 6.86497 477C3.71218 471.273 3.01883 464.637 0 459z"/>
</svg>
